:SAMPLES-PER-SECOND 30
:FULLY-SPECIFIED
:DEGREES
28
root  16.0325 39.7563 2.2561 -159.103 -86.9029 153.808
RightUpLeg  -0.941017 -8.07307 -6.27734
RightLeg  8.45553 11.0299 0.278955
RightFoot  -3.66555 -0.187342 2.44664
RightToes  -2.21189e-009 0 -3.6325e-017
Spine  6.21629 -0.293971 3.05275
Spine1  2.03597 0.590873 -3.72013
HEad  -8.97671 -2.28358 -4.74622
LeftShoulder1  0.18399 2.25939 -7.09502
LeftArm  -19.331 13.1794 -20.6218
LeftForeArm  9.40391 -8.12234 0.738509
LeftHand  -0.018466 4.01795 -0.249055
RightShoulder  0.0717821 -2.98039 6.68261
RightArm  -9.43089 -10.9359 14.2569
RightForeArm  -2.92734 3.82202 -3.37124
RightHand  -0.114354 4.76296 -1.6
LeftUpLeg  -1.06692 3.72353 0.712767
LeftLeg  8.61513 -5.9961 0.38109
LeftFoot  -3.43827 -0.133142 2.22058
LeftToes  -4.03379e-008 1.61488e-010 -5.81581e-011
29
root  16.003 39.7741 2.15947 -152.869 -87.4451 147.589
RightUpLeg  -0.699694 -8.28922 -6.24015
RightLeg  8.29508 10.6267 0.258096
RightFoot  -3.68495 -0.186092 2.44286
RightToes  -2.21189e-009 0 -3.6325e-017
Spine  6.55404 -0.495111 2.92927
Spine1  1.31345 0.276765 -3.22455
HEad  -8.06568 -0.850246 -4.87488
LeftShoulder1  0.160545 2.31727 -5.80783
LeftArm  -19.6936 13.2106 -18.9993
LeftForeArm  8.61941 -8.61226 0.910656
LeftHand  -0.0228288 4.20142 0.275932
RightShoulder  0.0985406 -2.68482 4.06529
RightArm  -9.67209 -11.768 12.2399
RightForeArm  -5.65258 4.15649 -3.49845
RightHand  -0.0642624 4.88028 -1.02468
LeftUpLeg  -0.936432 3.55589 0.749135
LeftLeg  8.28326 -6.50369 0.47201
LeftFoot  -3.31137 -0.123459 2.06802
LeftToes  -4.03379e-008 1.61488e-010 -5.81581e-011
30
root  15.9748 39.7798 2.05597 -145.677 -87.6995 140.398
RightUpLeg  -0.625269 -8.26956 -6.20044
RightLeg  8.38666 10.2145 0.195072
RightFoot  -3.79095 -0.17064 2.21671
RightToes  -2.21189e-009 0 -3.6325e-017
Spine  6.44823 -0.549868 2.85928
Spine1  1.29183 0.204954 -3.14071
HEad  -7.10788 0.0674986 -4.5747
LeftShoulder1  0.173831 2.09314 -4.3252
LeftArm  -20.1587 12.7505 -17.8413
LeftForeArm  7.92985 -8.14633 1.26508
LeftHand  -0.0223867 3.89978 0.0989101
RightShoulder  0.0814881 -2.70616 2.22972
RightArm  -10.2701 -11.7829 10.4296
RightForeArm  -7.60044 4.61621 -3.62537
RightHand  -0.0806218 5.26971 -1.18876
LeftUpLeg  -0.809476 3.68367 0.817664
LeftLeg  8.04236 -6.98842 0.398581
LeftFoot  -3.26737 -0.109515 1.85017
LeftToes  -4.03379e-008 1.61488e-010 -5.81581e-011
31
root  15.9382 39.7799 1.95093 -140.746 -87.9112 135.426
RightUpLeg  -0.531184 -8.14304 -6.0313
RightLeg  8.51281 9.81238 0.126651
RightFoot  -3.86236 -0.155039 1.98617
RightToes  -2.21189e-009 0 -3.6325e-017
Spine  6.38298 -0.731231 2.47178
Spine1  1.23735 -0.108789 -2.55043
HEad  -6.46259 0.866753 -4.185
LeftShoulder1  0.143883 2.21284 -3.08356
LeftArm  -20.3079 12.5005 -16.9159
LeftForeArm  6.95368 -7.57701 1.47329
LeftHand  -0.0223004 3.84541 0.335997
RightShoulder  0.0984684 -2.40809 0.57072
RightArm  -10.8317 -11.4254 8.92966
RightForeArm  -7.52311 5.68579 -3.63683
RightHand  -0.0763435 5.11161 -1.14869
LeftUpLeg  -0.70133 3.7778 0.993683
LeftLeg  7.9644 -7.42294 0.341927
LeftFoot  -3.25457 -0.105554 1.78836
LeftToes  -4.03379e-008 1.61488e-010 -5.81581e-011
32
root  15.9209 39.7694 1.85096 -137.939 -88.0757 132.712
RightUpLeg  -0.659553 -8.13974 -5.89248
RightLeg  8.74205 9.5261 0.277426
RightFoot  -4.13814 -0.153254 1.96791
RightToes  -2.21189e-009 0 -3.6325e-017
Spine  6.3308 -0.777849 2.54147
Spine1  1.03589 -0.154561 -2.59051
HEad  -5.70217 1.20018 -4.15127
LeftShoulder1  0.156899 1.94875 -1.84982
LeftArm  -20.4396 12.0728 -16.164
LeftForeArm  6.56758 -7.01058 1.62894
LeftHand  -0.0237668 3.92701 0.536786
RightShoulder  0.0868281 -2.46625 -0.11626
RightArm  -10.8522 -10.6669 7.22856
RightForeArm  -8.04713 6.89126 -3.38506
RightHand  -0.133737 5.39195 -1.75583
LeftUpLeg  -0.889577 3.74395 1.17999
LeftLeg  8.12837 -7.58863 0.329653
LeftFoot  -3.286 -0.0984098 1.67777
LeftToes  -4.03379e-008 1.61488e-010 -5.81581e-011
33
root  15.9085 39.7711 1.76343 -138.192 -88.1233 132.824
RightUpLeg  -0.501722 -8.1864 -5.76284
RightLeg  8.80293 9.55288 0.357374
RightFoot  -4.05991 -0.123319 1.51077
RightToes  -2.21189e-009 0 -3.6325e-017
Spine  6.53837 -0.759421 2.29549
Spine1  0.902525 -0.241356 -2.03894
HEad  -4.992 1.51024 -4.21147
LeftShoulder1  0.178517 1.66994 -1.44664
LeftArm  -20.4875 11.6128 -15.3056
LeftForeArm  5.4802 -6.34796 1.77146
LeftHand  -0.0272199 3.93331 0.505124
RightShoulder  0.0799805 -2.44513 -1.03363
RightArm  -11.2552 -10.1506 6.32839
RightForeArm  -8.85984 8.64612 -3.08418
RightHand  -0.220139 5.37303 -2.68831
LeftUpLeg  -0.72032 3.72119 1.34018
LeftLeg  8.14544 -7.57459 0.383303
LeftFoot  -3.28468 -0.0919616 1.58572
LeftToes  -4.03379e-008 1.61488e-010 -5.81581e-011
34
root  15.899 39.7761 1.65418 -142.172 -88.161 136.807
RightUpLeg  -0.434519 -8.02577 -5.40728
RightLeg  8.6824 9.3938 0.274907
RightFoot  -4.02415 -0.11197 1.33983
RightToes  -2.21189e-009 0 -3.6325e-017
Spine  6.52716 -0.790032 2.1481
Spine1  0.829755 -0.340033 -1.68336
HEad  -4.66682 2.02022 -3.94217
LeftShoulder1  0.16961 1.67615 -0.926668
LeftArm  -20.3027 11.1187 -14.7454
LeftForeArm  4.81545 -5.83303 1.74001
LeftHand  -0.0284087 3.28515 0.624318
RightShoulder  0.0894731 -2.23769 -1.64346
RightArm  -12.0682 -9.45478 6.0786
RightForeArm  -7.98329 10.0594 -2.93619
RightHand  -0.222939 5.8984 -2.61837
LeftUpLeg  -0.705712 3.72946 1.64683
LeftLeg  8.18118 -7.61402 0.41458
LeftFoot  -3.34317 -0.0800338 1.41771
LeftToes  -4.03379e-008 1.61488e-010 -5.81581e-011
35
root  15.9012 39.7844 1.56695 -145.635 -88.1496 140.367
RightUpLeg  -0.423953 -8.03623 -5.18606
RightLeg  8.42523 9.42033 0.301814
RightFoot  -3.93128 -0.108128 1.2832
RightToes  -2.21189e-009 0 -3.6325e-017
Spine  6.55196 -0.83465 2.22766
Spine1  0.680065 -0.366856 -1.76529
HEad  -4.58143 2.29426 -3.33624
LeftShoulder1  0.155022 1.67446 -0.0248048
LeftArm  -20.7236 10.9232 -15.169
LeftForeArm  4.10842 -5.68984 1.93253
LeftHand  -0.041958 3.73246 1.59665
RightShoulder  0.0953082 -2.17894 -1.47134
RightArm  -12.5363 -8.29893 5.75304
RightForeArm  -6.74233 10.9582 -2.65541
RightHand  -0.232793 5.69292 -2.75591
LeftUpLeg  -0.805116 3.66349 1.83077
LeftLeg  8.19599 -7.52505 0.496193
LeftFoot  -3.37694 -0.0650981 1.20734
LeftToes  -4.03379e-008 1.61488e-010 -5.81581e-011
36
root  15.9045 39.7876 1.48039 -149.962 -88.0013 144.618
RightUpLeg  -0.333972 -7.95558 -4.98356
RightLeg  8.35001 9.49616 0.273632
RightFoot  -3.93454 -0.0981418 1.12903
RightToes  -2.21189e-009 0 -3.6325e-017
Spine  6.65313 -0.68814 1.91269
Spine1  0.715816 -0.322197 -1.20832
HEad  -4.26934 2.24669 -3.59935
LeftShoulder1  0.172037 1.48195 -0.0647262
LeftArm  -21.0044 10.4027 -15.1408
LeftForeArm  3.72388 -5.25592 2.08244
LeftHand  -0.048238 3.82015 2.16459
RightShoulder  0.104371 -2.00044 -1.77281
RightArm  -12.591 -7.43039 6.16845
RightForeArm  -5.4147 11.2089 -2.52082
RightHand  -0.26297 6.22044 -2.96253
LeftUpLeg  -0.674971 3.7832 2.03944
LeftLeg  8.16242 -7.45442 0.493001
LeftFoot  -3.34756 -0.0535787 1.05252
LeftToes  -4.03379e-008 1.61488e-010 -5.81581e-011
37
root  15.8817 39.7913 1.38376 -155.908 -87.936 150.467
RightUpLeg  -0.0590851 -7.78335 -4.65453
RightLeg  8.06376 9.39965 0.182007
RightFoot  -4.04313 -0.110367 1.3173
RightToes  -2.21189e-009 0 -3.6325e-017
Spine  6.7849 -0.625219 2.24258
Spine1  0.685022 -0.189582 -1.49521
HEad  -4.37092 2.54306 -3.43801
LeftShoulder1  0.164739 1.62033 -0.32845
LeftArm  -20.7612 9.22148 -14.7611
LeftForeArm  3.11913 -4.60124 1.93248
LeftHand  -0.0514598 3.70852 2.30139
RightShoulder  0.121183 -1.81999 -1.45541
RightArm  -12.0457 -6.62053 6.56384
RightForeArm  -3.87744 10.8047 -2.49275
RightHand  -0.244285 6.36732 -2.74824
LeftUpLeg  -0.507836 3.99464 2.39942
LeftLeg  8.1837 -7.53356 0.474584
LeftFoot  -3.46843 -0.0339046 0.771435
LeftToes  -4.03379e-008 1.61488e-010 -5.81581e-011
38
root  15.8788 39.7868 1.30824 -153.723 -88.1183 148.319
RightUpLeg  -0.0910704 -7.9437 -4.62352
RightLeg  8.18132 9.33422 0.390984
RightFoot  -4.14 -0.0921656 1.03115
RightToes  -2.21189e-009 0 -3.6325e-017
Spine  6.80284 -0.655869 2.18814
Spine1  0.734877 -0.247128 -1.33452
HEad  -4.54477 2.52734 -3.44865
LeftShoulder1  0.170744 1.56525 -0.40189
LeftArm  -20.7518 8.50965 -15.0065
LeftForeArm  3.17365 -4.14221 1.92115
LeftHand  -0.0545073 3.42315 2.23603
RightShoulder  0.128652 -1.83298 -0.881861
RightArm  -11.1268 -5.59092 6.92709
RightForeArm  -3.48137 9.7579 -2.42541
RightHand  -0.247116 6.53367 -2.74585
LeftUpLeg  -0.618529 3.86102 2.51327
LeftLeg  8.28481 -7.64721 0.484126
LeftFoot  -3.48048 -0.0334127 0.78702
LeftToes  -4.03379e-008 1.61488e-010 -5.81581e-011
39
root  15.8807 39.7791 1.21616 -152.28 -88.3395 147.087
RightUpLeg  -0.352283 -7.83606 -4.35201
RightLeg  8.31562 8.97496 0.402101
RightFoot  -4.16623 -0.0721352 0.714303
RightToes  -2.21189e-009 0 -3.6325e-017
Spine  6.85132 -0.653824 1.83375
Spine1  0.564222 -0.385891 -0.641431
HEad  -4.6741 2.27267 -3.82163
LeftShoulder1  0.167005 1.62238 -0.476588
LeftArm  -20.7467 8.26674 -15.6294
LeftForeArm  3.91276 -4.12253 1.85563
LeftHand  -0.0542465 3.74242 2.50727
RightShoulder  0.141092 -1.6882 -0.782152
RightArm  -10.3821 -4.95194 7.76074
RightForeArm  -2.98982 8.2807 -2.38962
RightHand  -0.241971 6.51123 -2.70072
LeftUpLeg  -0.959076 3.67821 2.69069
LeftLeg  8.42866 -7.72305 0.499658
LeftFoot  -3.48422 -0.0293049 0.74297
LeftToes  -4.03379e-008 1.61488e-010 -5.81581e-011
40
root  15.861 39.7713 1.13763 -148.588 -88.4832 143.388
RightUpLeg  -0.295199 -7.89047 -4.30887
RightLeg  8.40674 8.84779 0.477469
RightFoot  -4.45593 -0.0678569 0.639597
RightToes  -2.21189e-009 0 -3.6325e-017
Spine  6.9597 -0.583367 1.98452
Spine1  0.608467 -0.271824 -0.782533
HEad  -4.41855 1.85617 -3.97393
LeftShoulder1  0.182731 1.4742 -0.626125
LeftArm  -20.4067 7.5923 -15.9024
LeftForeArm  4.67193 -3.57046 1.66492
LeftHand  -0.0755397 2.87968 2.87759
RightShoulder  0.131847 -1.91726 -0.181375
RightArm  -9.31072 -4.31217 8.31364
RightForeArm  -2.25603 6.61674 -2.26346
RightHand  -0.196719 6.6067 -2.24529
LeftUpLeg  -0.945845 3.60767 2.78968
LeftLeg  8.43945 -7.86148 0.500636
LeftFoot  -3.55892 -0.0166912 0.560478
LeftToes  -4.03379e-008 1.61488e-010 -5.81581e-011
